<svg width="17" height="17" viewBox="0 0 17 17" fill="none" xmlns="http://www.w3.org/2000/svg">
<path d="M16 8.5C16 12.6421 12.6421 16 8.5 16C4.35786 16 1 12.6421 1 8.5C1 4.35786 4.35786 1 8.5 1C12.6421 1 16 4.35786 16 8.5Z" stroke="#737373" stroke-width="1.5" stroke-linecap="round" stroke-linejoin="round"/>
<path d="M7.66666 8.50001V11.8333C7.66666 12.2936 8.03976 12.6667 8.5 12.6667C8.96024 12.6667 9.33333 12.2936 9.33333 11.8333V8.50001C9.33333 8.03977 8.96024 7.66668 8.5 7.66668C8.03976 7.66668 7.66666 8.03977 7.66666 8.50001Z" stroke="#737373" stroke-width="1.5" stroke-linecap="round" stroke-linejoin="round"/>
<path d="M9.33333 5.16668C9.33333 4.70644 8.96024 4.33334 8.5 4.33334C8.03976 4.33334 7.66667 4.70644 7.66667 5.16668C7.66667 5.62691 8.03976 6.00001 8.5 6.00001C8.96024 6.00001 9.33333 5.62691 9.33333 5.16668Z" stroke="#737373" stroke-width="1.5" stroke-linecap="round" stroke-linejoin="round"/>
</svg>
