<svg width="15" height="17" viewBox="0 0 15 17" fill="none" xmlns="http://www.w3.org/2000/svg">
<path d="M14 14.1574V6.62901C14 6.14033 13.7951 5.68289 13.4141 5.37319C12.4129 4.55936 10.3756 2.94182 8.75441 1.50408C8.0309 0.862417 6.93105 0.821885 6.19425 1.44848L1.64853 5.31427C1.2369 5.66432 1 6.17536 1 6.71326V14.1574C1 15.175 1.83147 16 2.85714 16H3.32143C4.3471 16 5.17857 15.175 5.17857 14.1574V12.3148C5.17857 11.2972 6.01004 10.4722 7.03571 10.4722H7.96429C8.98996 10.4722 9.82143 11.2972 9.82143 12.3148V14.1574C9.82143 15.175 10.6529 16 11.6786 16H12.1429C13.1685 16 14 15.175 14 14.1574Z" fill="white" stroke="#777777" stroke-width="1.5" stroke-linecap="round" stroke-linejoin="round"/>
</svg>
