<svg width="15" height="13" viewBox="0 0 15 13" fill="none" xmlns="http://www.w3.org/2000/svg">
<path d="M1.48901 1.39286L5.5833 6.01864M13.6389 1.532L9.46445 6.01864M1.48901 11.6071C1.74364 11.8516 2.07812 12 2.44444 12H12.5556C12.987 12 13.3742 11.7942 13.6389 11.468M1.48901 11.6071C1.18913 11.3192 1 10.8979 1 10.4286V2.57143C1 1.70355 1.6467 1 2.44444 1H12.5556C13.3533 1 14 1.70355 14 2.57143V10.4286C14 10.8271 13.8636 11.191 13.6389 11.468M1.48901 11.6071L5.5833 6.01864M5.5833 6.01864L6.51447 7.07069C7.06943 7.63419 7.93065 7.63419 8.48561 7.07069L9.46445 6.01864M9.46445 6.01864L13.6389 11.468" stroke="#777777" stroke-width="1.5" stroke-linecap="round" stroke-linejoin="round"/>
</svg>
