<svg width="13" height="16" viewBox="0 0 13 16" fill="none" xmlns="http://www.w3.org/2000/svg">
<path d="M3.03704 10.7222H6.2963M3.03704 12.2778H8.74074M2.22222 15H10.7778C11.4528 15 12 14.4777 12 13.8333V2.16667C12 1.52233 11.4528 1 10.7778 1H2.22222C1.54721 1 1 1.52233 1 2.16667V13.8333C1 14.4777 1.54721 15 2.22222 15ZM3.03704 1H6.7037V6.25C6.7037 6.43686 6.45449 6.51616 6.33704 6.36667L5.84815 5.74444C5.35926 5.12222 4.38148 5.12222 3.89259 5.74444L3.4037 6.36667C3.28625 6.51616 3.03704 6.43686 3.03704 6.25V1Z" stroke="#737373" stroke-width="1.2" stroke-linecap="round" stroke-linejoin="round"/>
</svg>
