<svg width="48" height="48" viewBox="0 0 48 48" fill="none" xmlns="http://www.w3.org/2000/svg">
<g clip-path="url(#clip0_1_428)">
<rect width="48" height="48" rx="24" fill="#DEDEDE"/>
<path d="M24.3399 -0.374997C10.6313 -0.560154 -0.560089 10.6313 -0.374932 24.3399C-0.19212 37.4871 10.513 48.1922 23.6602 48.375C37.3712 48.5625 48.5602 37.3711 48.3727 23.6625C48.1923 10.5129 37.4872 -0.192185 24.3399 -0.374997ZM39.1548 37.9746C39.1081 38.0251 39.0509 38.0647 38.9872 38.0906C38.9235 38.1165 38.8549 38.1281 38.7862 38.1245C38.7176 38.1209 38.6505 38.1023 38.5899 38.0699C38.5292 38.0375 38.4764 37.9922 38.4352 37.9371C37.3871 36.5657 36.1034 35.3916 34.6442 34.4695C31.6606 32.5547 27.8802 31.5 24.0001 31.5C20.12 31.5 16.3395 32.5547 13.3559 34.4695C11.8968 35.3912 10.6132 36.5649 9.56492 37.936C9.52374 37.991 9.47094 38.0363 9.41029 38.0687C9.34964 38.1011 9.2826 38.1197 9.21394 38.1233C9.14527 38.1269 9.07666 38.1153 9.01297 38.0894C8.94928 38.0635 8.89206 38.0239 8.84538 37.9734C5.40672 34.2614 3.45885 29.4109 3.37507 24.3516C3.18405 12.9481 12.5415 3.40313 23.9497 3.375C35.3579 3.34688 44.6251 12.6106 44.6251 24C44.629 29.1813 42.6751 34.1728 39.1548 37.9746Z" fill="#969696"/>
<path d="M23.9999 10.875C21.689 10.875 19.5995 11.741 18.1147 13.3148C16.63 14.8887 15.8882 17.0648 16.0558 19.4004C16.3956 24 19.9593 27.75 23.9999 27.75C28.0405 27.75 31.5972 24 31.9441 19.4016C32.1175 17.0883 31.3815 14.932 29.8722 13.3289C28.3815 11.7469 26.2956 10.875 23.9999 10.875Z" fill="#969696"/>
</g>
<defs>
<clipPath id="clip0_1_428">
<rect width="48" height="48" rx="24" fill="white"/>
</clipPath>
</defs>
</svg>
